<?xml version="1.0" encoding="UTF-8"?><svg xmlns="http://www.w3.org/2000/svg" xmlns:xlink="http://www.w3.org/1999/xlink" contentScriptType="text/ecmascript" width="375" zoomAndPan="magnify" contentStyleType="text/css" viewBox="0 0 375 101.999999" height="101.999999" preserveAspectRatio="xMidYMid meet" version="1.0"><path fill="rgb(27.839661%, 50.588989%, 92.549133%)" d="M 36.328125 52.265625 C 35.550781 48.277344 32.386719 46.714844 29.179688 46.714844 C 25.933594 46.714844 22.652344 48.316406 21.828125 52.265625 Z M 40.476562 55.597656 L 21.667969 55.597656 C 21.667969 59.957031 25.816406 62.59375 29.140625 62.59375 C 31.890625 62.59375 34.4375 61.398438 35.753906 58.890625 L 39.902344 58.890625 C 38.21875 63.746094 33.660156 66.175781 29.101562 66.175781 C 23.394531 66.175781 17.640625 62.308594 17.640625 54.65625 C 17.640625 47.003906 23.308594 43.175781 29.179688 43.175781 C 34.683594 43.175781 40.105469 46.671875 40.554688 53.667969 C 40.640625 54.328125 40.597656 55.027344 40.476562 55.601562 " fill-opacity="1" fill-rule="nonzero"/><path fill="rgb(27.839661%, 50.588989%, 92.549133%)" d="M 114.769531 17.519531 L 114.769531 47.160156 L 119.453125 34.859375 L 119.453125 22.203125 L 130.644531 22.203125 L 130.644531 17.519531 Z M 119.453125 64.988281 L 114.769531 76.789062 L 114.769531 82.1875 L 119.453125 82.1875 Z M 119.453125 64.988281 " fill-opacity="1" fill-rule="nonzero"/><path fill="rgb(0%, 0%, 0%)" d="M 168.199219 43.121094 L 168.199219 46.238281 C 169.714844 44.019531 171.847656 43.121094 174.429688 43.121094 C 177.546875 43.121094 180.332031 43.859375 181.976562 46.980469 C 183.328125 44.515625 185.832031 43.160156 189.066406 43.121094 C 195.179688 43.121094 197.839844 47.429688 197.839844 53.050781 L 197.839844 65.691406 L 193.820312 65.691406 L 193.820312 53.089844 C 193.820312 49.972656 193.042969 46.855469 189.1875 46.855469 C 185.25 46.855469 183.28125 49.5625 183.28125 53.175781 L 183.28125 65.691406 L 179.265625 65.691406 L 179.265625 53.214844 C 179.265625 50.097656 178.074219 46.855469 174.386719 46.855469 C 170.859375 46.855469 168.195312 49.273438 168.195312 53.625 L 168.195312 65.691406 L 164.171875 65.691406 L 164.171875 43.121094 Z M 168.199219 43.121094 " fill-opacity="1" fill-rule="nonzero"/><path fill="rgb(27.839661%, 50.588989%, 92.549133%)" d="M 134.050781 48.625 C 135.089844 48.625 135.9375 49.726562 135.9375 51.082031 C 135.9375 52.441406 135.089844 53.542969 134.050781 53.542969 C 133.003906 53.542969 132.160156 52.441406 132.160156 51.082031 C 132.160156 49.726562 133.007812 48.625 134.050781 48.625 Z M 56.667969 43.160156 C 53.882812 43.160156 51.507812 43.859375 49.863281 46.238281 L 49.863281 43.488281 L 45.84375 43.488281 L 45.84375 65.691406 L 49.863281 65.691406 L 49.863281 53.625 C 49.863281 49.777344 52.179688 46.730469 56.375 46.730469 C 56.429688 46.730469 56.488281 46.730469 56.542969 46.730469 C 61.257812 46.808594 62.328125 49.644531 62.328125 53.785156 L 62.328125 65.6875 L 66.300781 65.6875 L 66.300781 53.75 C 66.300781 47.390625 63.429688 43.164062 56.667969 43.164062 Z M 96.777344 43.046875 C 94.296875 43.046875 92.085938 44 90.496094 46.238281 L 90.496094 43.53125 L 86.515625 43.53125 L 86.515625 65.691406 L 90.496094 65.691406 L 90.496094 53.667969 C 90.496094 49.597656 93.617188 46.589844 97.339844 46.589844 C 98.007812 46.589844 98.703125 46.6875 99.394531 46.894531 L 99.394531 43.371094 C 98.5 43.160156 97.621094 43.050781 96.777344 43.050781 Z M 77.65625 38.566406 L 73.636719 39.347656 L 73.636719 43.488281 L 70.320312 43.488281 L 70.320312 46.6875 L 73.644531 46.6875 L 73.644531 59.167969 C 73.644531 64.335938 76.46875 65.8125 80.808594 65.8125 C 81.398438 65.8125 82.015625 65.785156 82.660156 65.738281 L 82.660156 62.375 C 82.050781 62.433594 81.484375 62.472656 80.964844 62.472656 C 78.953125 62.472656 77.65625 61.851562 77.65625 59.214844 L 77.65625 46.695312 L 82.535156 46.695312 L 82.535156 43.496094 L 77.65625 43.496094 Z M 102.792969 43.164062 L 111.441406 64.546875 L 108.324219 72.550781 L 112.589844 72.550781 L 124.234375 43.164062 L 119.96875 43.164062 L 116.152344 53.054688 L 113.574219 60.277344 L 111.070312 53.015625 L 107.054688 43.164062 Z M 128.339844 14.277344 L 128.339844 87.777344 L 159.375 82.191406 L 159.375 19.875 Z M 128.339844 14.277344 " fill-opacity="1" fill-rule="nonzero"/><path fill="rgb(0%, 0%, 0%)" d="M 215.246094 46.671875 C 210.382812 46.757812 207.453125 50.167969 207.453125 54.527344 C 207.453125 58.808594 210.464844 62.675781 215.578125 62.550781 C 219.25 62.464844 223.375 59.835938 223.375 54.609375 C 223.375 49.261719 219.042969 46.625 215.253906 46.664062 M 227.410156 43.503906 L 227.410156 65.761719 L 223.375 65.761719 L 223.375 62.757812 C 221.765625 65.1875 218.179688 66.089844 215.414062 66.128906 C 207.617188 66.132812 203.414062 60.660156 203.414062 54.527344 C 203.414062 48.523438 207.785156 43.132812 215.332031 43.132812 C 218.09375 43.132812 221.433594 43.789062 223.414062 46.464844 L 223.375 43.503906 Z M 227.410156 43.503906 " fill-opacity="1" fill-rule="nonzero"/><path fill="rgb(0%, 0%, 0%)" d="M 237.488281 43.503906 L 237.488281 46.25 C 239.132812 43.871094 241.515625 43.171875 244.308594 43.171875 C 251.085938 43.171875 253.960938 47.398438 253.960938 53.746094 L 253.960938 65.675781 L 249.980469 65.675781 L 249.980469 53.789062 C 249.980469 49.652344 248.914062 46.824219 244.1875 46.742188 C 239.875 46.65625 237.492188 49.734375 237.492188 53.625 L 237.492188 65.675781 L 233.46875 65.675781 L 233.46875 43.503906 Z M 237.488281 43.503906 " fill-opacity="1" fill-rule="nonzero"/><path fill="rgb(0%, 0%, 0%)" d="M 299.75 46.6875 C 299.824219 46.6875 299.898438 46.6875 299.96875 46.691406 C 304.785156 46.816406 307.207031 50.152344 307.207031 54.109375 C 307.207031 58.230469 304.699219 62.230469 299.679688 62.230469 C 294.785156 62.230469 291.988281 58.644531 291.949219 54.730469 C 291.949219 50.75 294.785156 46.691406 299.742188 46.691406 Z M 271.144531 46.6875 C 274.90625 46.6875 279.160156 49.320312 279.160156 54.640625 C 279.160156 59.875 275.046875 62.507812 271.382812 62.59375 C 271.304688 62.59375 271.222656 62.601562 271.148438 62.601562 C 266.195312 62.601562 263.285156 58.78125 263.285156 54.558594 C 263.285156 50.195312 266.203125 46.769531 271.058594 46.691406 C 271.089844 46.691406 271.117188 46.691406 271.144531 46.691406 Z M 271.136719 43.140625 C 263.609375 43.140625 259.25 48.542969 259.25 54.554688 C 259.25 60.691406 263.445312 66.171875 271.21875 66.171875 C 273.972656 66.132812 277.550781 65.226562 279.160156 62.796875 L 279.160156 65.800781 L 283.191406 65.800781 L 283.191406 43.515625 L 279.160156 43.515625 L 279.203125 46.480469 C 277.230469 43.800781 273.894531 43.140625 271.144531 43.140625 Z M 299.722656 43.140625 C 292.003906 43.140625 287.921875 48.601562 287.921875 54.71875 C 287.921875 60.777344 292.238281 65.761719 299.722656 65.761719 C 302.480469 65.761719 305.273438 65.183594 307.214844 62.628906 L 307.214844 64.984375 C 307.214844 69.269531 303.304688 70.957031 299.769531 71 C 299.703125 71 299.644531 71 299.578125 71 C 296.683594 71 292.980469 70.074219 292.980469 67.292969 L 288.988281 67.292969 C 288.988281 72.363281 294.214844 74.585938 299.804688 74.585938 C 305.316406 74.585938 311.234375 71.90625 311.234375 64.984375 L 311.234375 43.515625 L 307.25 43.515625 L 307.25 46.480469 C 305.601562 44.089844 302.558594 43.140625 299.804688 43.140625 C 299.773438 43.140625 299.75 43.140625 299.71875 43.140625 Z M 299.722656 43.140625 " fill-opacity="1" fill-rule="nonzero"/><path fill="rgb(0%, 0%, 0%)" d="M 334.953125 52.265625 C 334.171875 48.277344 331.011719 46.714844 327.804688 46.714844 C 324.558594 46.714844 321.273438 48.316406 320.453125 52.265625 Z M 339.097656 55.597656 L 320.292969 55.597656 C 320.292969 59.957031 324.4375 62.59375 327.765625 62.59375 C 330.515625 62.59375 333.0625 61.398438 334.378906 58.890625 L 338.523438 58.890625 C 336.84375 63.746094 332.28125 66.175781 327.726562 66.175781 C 322.011719 66.175781 316.265625 62.304688 316.265625 54.65625 C 316.265625 47.003906 321.933594 43.175781 327.804688 43.175781 C 333.308594 43.175781 338.730469 46.671875 339.179688 53.667969 C 339.265625 54.328125 339.21875 55.027344 339.09375 55.601562 " fill-opacity="1" fill-rule="nonzero"/><path fill="rgb(0%, 0%, 0%)" d="M 348.480469 43.542969 L 348.480469 46.230469 C 350.636719 43.257812 353.90625 42.5625 357.46875 43.378906 L 357.46875 46.882812 C 352.875 45.535156 348.480469 48.839844 348.480469 53.609375 L 348.480469 65.558594 L 344.46875 65.558594 L 344.46875 43.542969 Z M 348.480469 43.542969 " fill-opacity="1" fill-rule="nonzero"/></svg>