<?xml version="1.0" encoding="UTF-8"?><svg xmlns="http://www.w3.org/2000/svg" xmlns:xlink="http://www.w3.org/1999/xlink" contentScriptType="text/ecmascript" width="375" zoomAndPan="magnify" contentStyleType="text/css" viewBox="0 0 375 374.999991" height="374.999991" preserveAspectRatio="xMidYMid meet" version="1.0"><defs><clipPath id="clip-0"><path d="M 94 31.703125 L 280 31.703125 L 280 342.953125 L 94 342.953125 Z M 94 31.703125 " clip-rule="nonzero"/></clipPath></defs><g clip-path="url(#clip-0)"><path fill="rgb(27.059937%, 50.979614%, 92.549133%)" d="M 148.394531 31.703125 L 148.394531 45.429688 L 94.714844 45.429688 L 94.714844 319.304688 L 114.558594 319.304688 L 114.558594 65.277344 L 148.394531 65.277344 L 148.394531 342.953125 L 279.941406 319.304688 L 279.941406 55.402344 Z M 172.59375 197.996094 C 168.171875 197.996094 164.589844 193.332031 164.589844 187.578125 C 164.589844 181.824219 168.171875 177.160156 172.59375 177.160156 C 177.015625 177.160156 180.601562 181.824219 180.601562 187.578125 C 180.601562 193.332031 177.015625 197.996094 172.59375 197.996094 Z M 172.59375 197.996094 " fill-opacity="1" fill-rule="nonzero"/></g></svg>